<svg xmlns="http://www.w3.org/2000/svg" xmlns:xlink="http://www.w3.org/1999/xlink" viewBox="0 0 244.61 130.39"><defs><style>.cls-1{fill:none;}.cls-2{clip-path:url(#clip-path);}.cls-3{fill:#1d78be;}.cls-4{fill:#37aee4;}.cls-5{fill:#65cdf0;}.cls-6{fill:#fff;}.cls-7{fill:#1e4383;}.cls-8{fill:#fcd700;}</style><clipPath id="clip-path" transform="translate(-48.29 -12.88)"><rect class="cls-1" width="338.72" height="155.73"/></clipPath></defs><title>logo-mycmc</title><g id="Layer_2" data-name="Layer 2"><g id="Layer_9" data-name="Layer 9"><g class="cls-2"><path class="cls-3" d="M116.93,13.3a3.64,3.64,0,0,1,1.47,0Z" transform="translate(-48.29 -12.88)"/><path class="cls-3" d="M118.87,20c.19,0,.54-.08.64.05-.2,0-.54.08-.64-.05" transform="translate(-48.29 -12.88)"/><path class="cls-3" d="M116.06,25.42c.11-.13.48,0,.7-.05v.05h-.7Z" transform="translate(-48.29 -12.88)"/></g><rect class="cls-4" x="68.46" y="12.48" width="1.76" height="0.06"/><g class="cls-2"><path class="cls-3" d="M118.52,25.42v-.05c.25,0,.66-.08.82.05h-.82Z" transform="translate(-48.29 -12.88)"/><path class="cls-4" d="M112.36,26.36a18.71,18.71,0,0,1,0,2.58c-.18-.67,0-1.74-.12-2.4,0-.13,0-.19.17-.18" transform="translate(-48.29 -12.88)"/><path class="cls-3" d="M142.17,29.93h.59a.62.62,0,0,1-.59,0" transform="translate(-48.29 -12.88)"/><path class="cls-4" d="M130.93,35.67c.14.18,0,.29.12.47-.19,0-.1-.29-.12-.47" transform="translate(-48.29 -12.88)"/><path class="cls-3" d="M116.46,37.19a7.89,7.89,0,0,1,2.06,0h-2.06Z" transform="translate(-48.29 -12.88)"/><path class="cls-5" d="M116.81,37.19h1.47c.22.12.63,0,.88.12-.76.09-1.78-.06-2.69,0,0-.16.36,0,.34-.12" transform="translate(-48.29 -12.88)"/><path class="cls-3" d="M133.57,38.54h.64a.72.72,0,0,1-.64,0" transform="translate(-48.29 -12.88)"/><path class="cls-4" d="M118.46,53.71c-.7-1.87-4.12-2.52-5-.29a2.95,2.95,0,0,0,3.92,3.86,3,3,0,0,0,1.12-3.57m-3.11-3.16a6.18,6.18,0,0,1,1.7.06,4.73,4.73,0,0,1,2.69,2,7.12,7.12,0,0,1,.59,1.4,4.86,4.86,0,0,1,.12,1.12c0,4.43-5.29,5.36-7.62,2.86a4.77,4.77,0,0,1-1.17-3.8A4.55,4.55,0,0,1,113,51.66a4.05,4.05,0,0,1,2.34-1.11" transform="translate(-48.29 -12.88)"/><path class="cls-6" d="M117.34,57.28a2.95,2.95,0,0,1-3.92-3.86c.92-2.23,4.34-1.58,5,.29a3,3,0,0,1-1.12,3.57" transform="translate(-48.29 -12.88)"/><path class="cls-7" d="M102.82,15.7a38.09,38.09,0,0,1,13.94-2.81h2.11c.1.14.44,0,.64.06a38.56,38.56,0,0,1,10,1.81.8.8,0,0,0,.53.24c.37.14.73.29,1.11.41.1,0,.11.05.18.06s-.07,0-.12.06A39.23,39.23,0,0,0,118.4,13.3a3.64,3.64,0,0,0-1.47,0h-.53c-.35,0-.85-.08-1.11.06h-.11a34.8,34.8,0,0,0-7.62,1.17,37.16,37.16,0,0,0-10.3,4.16,1.69,1.69,0,0,0-.47.35s-.31.43-.29.12A11.26,11.26,0,0,0,96,20.27c-.14.54,0,1-.41,1.29.23,1.9-.62,3.43-.24,4.92.07-.15.37-.12.18.06a7.71,7.71,0,0,0,1.11-.24c.34-.1.43-.33.65-.23.59-.57,1.82-1.09,2.92-1.93a32.68,32.68,0,0,1,7.73-3.4c.16.19,0,.38.06.58,1.56-.37,3.11-.75,4.8-1a40.23,40.23,0,0,1,6-.29c.1.13.44,0,.64.05,1,.06,2,.18,2.93.3a46.35,46.35,0,0,1,5.39,1.23c-.1-.28.16-.54-.24-.65v-.06c.26.12.58.17.82.3a29.49,29.49,0,0,1,2.87,1.11c0,.06.07,0,.12.06.17.17.5.2.7.35a32.74,32.74,0,0,1,8,5.5,3,3,0,0,0,.58.59c.31.22.51.54.82.76a.86.86,0,0,0,.7.35.62.62,0,0,0,.59,0c.27,0,.35-.11.53-.17.9-.86,1.78-1.73,2.63-2.64a5,5,0,0,0,.47-.64c0,.08,0,.16.06.17a3.27,3.27,0,0,1-.18.94c-1.06,1.07-2.06,2.19-3.22,3.16a2.5,2.5,0,0,1-.7.06,3.18,3.18,0,0,1-1-.47c-.44-.35-.78-.81-1.23-1.17a32.48,32.48,0,0,0-21-8.9c-.08-.13-.41,0-.59-.06h-2.22c-.18,0-.51-.07-.59.06a32.48,32.48,0,0,0-21,8.9,15.64,15.64,0,0,0-1.35,1.35h-.06a2.94,2.94,0,0,1-.76.35h-.35a2.66,2.66,0,0,1-.76-.35.29.29,0,0,1-.18-.18q-1.11-1.17-2.28-2.28a1.73,1.73,0,0,1-.59-1.41c.08,0,0-.15.06-.23s0-.53.06-.76c0-.4.29-.57.47-.82,0,0,.06-.06.11-.06a12.92,12.92,0,0,0,1.17-1.17,37.51,37.51,0,0,1,6-4.57,6.59,6.59,0,0,0,1.46-.76c.51-.29,1-.59,1.58-.88,1.15-.61,2.34-1.2,3.46-1.7" transform="translate(-48.29 -12.88)"/><path class="cls-3" d="M100.24,24.14c-1.1.84-2.33,1.36-2.92,1.93-.22-.1-.31.13-.65.23a7.71,7.71,0,0,1-1.11.24c.19-.18-.11-.21-.18-.06-.38-1.49.47-3,.24-4.92.39-.27.27-.75.41-1.29a11.26,11.26,0,0,1,.47-1.11c0,.31.26-.08.29-.12a1.69,1.69,0,0,1,.47-.35,37.16,37.16,0,0,1,10.3-4.16c-.09.14.22.12.24.12a36.84,36.84,0,0,1,4.74-.65,28.63,28.63,0,0,1-.06,4.86,35.57,35.57,0,0,1-.11-4.68,33.85,33.85,0,0,0-.12,4.68c0,.13.21,0,.29.06-.22.08-.08.3-.47.3,0-.08.1-.1.12-.18-.19-.05-.08.19-.23.18A36.34,36.34,0,0,0,100.36,24c0,.08-.1.09-.12.18" transform="translate(-48.29 -12.88)"/><path class="cls-3" d="M122.56,19.74c.53.06,1.37.25,2,.35a23.26,23.26,0,0,1,3,.82V21c.4.11.14.37.24.65a46.35,46.35,0,0,0-5.39-1.23c.06-.2-.13-.64.12-.65" transform="translate(-48.29 -12.88)"/><path class="cls-3" d="M140.07,28.23a3.24,3.24,0,0,1,.58.59,2.7,2.7,0,0,1-.58-.59" transform="translate(-48.29 -12.88)"/><path class="cls-3" d="M143.29,29.76c0-.05.06-.06.06-.12.89-.81,1.68-1.71,2.57-2.52-.85.9-1.73,1.78-2.63,2.64" transform="translate(-48.29 -12.88)"/><path class="cls-3" d="M142.35,30.81c-.33,0-.45-.13-.7-.18,0-.16-.26-.13-.3-.29a3,3,0,0,0,1,.47" transform="translate(-48.29 -12.88)"/><path class="cls-3" d="M96.32,19a32.86,32.86,0,0,1,6.5-3.34c-1.12.5-2.31,1.09-3.46,1.7-.54.29-1.07.59-1.58.88a6.59,6.59,0,0,1-1.46.76" transform="translate(-48.29 -12.88)"/><path class="cls-4" d="M141.47,29.58a1.79,1.79,0,0,0,1.88.06c0,.06,0,.07-.06.12-.18.06-.26.2-.53.17h-.59a.86.86,0,0,1-.7-.35" transform="translate(-48.29 -12.88)"/><path class="cls-4" d="M131.63,22.44c0-.05,0-.12-.06-.12s.3.12.35.23c-.14,0-.18-.09-.29-.11" transform="translate(-48.29 -12.88)"/><path class="cls-4" d="M107.56,14.53a34.8,34.8,0,0,1,7.62-1.17c0,.06-.09.09,0,.12a33.12,33.12,0,0,1,12.3,1.46c.13,1.62,0,3.49,0,5.21-2.53-.32-5.4-1.08-8.66-1.23a7.39,7.39,0,0,0-2.64.18c.24.38.65.17,1,.18a34.26,34.26,0,0,1,5.33.46c-.25,0-.06.45-.12.65-1-.12-1.91-.24-2.93-.3-.1-.13-.45,0-.64-.05a40.23,40.23,0,0,0-6,.29c.16-.15,0-.56.06-.65A23.73,23.73,0,0,0,108,20.74a32.68,32.68,0,0,0-7.73,3.4c0-.09.1-.1.12-.18A36.34,36.34,0,0,1,112,19.22c.15,0,0-.23.23-.18,0,.08-.1.1-.12.18.39,0,.24-.22.47-.3-.08,0-.3.07-.29-.06a35.57,35.57,0,0,1,.11-4.68,37.29,37.29,0,0,0,.12,4.68,28.63,28.63,0,0,0,.06-4.86,36.84,36.84,0,0,0-4.74.65s-.33,0-.24-.12" transform="translate(-48.29 -12.88)"/><path class="cls-5" d="M132.34,15.82a39,39,0,0,1,12.35,7.9,14.48,14.48,0,0,0,1.17,1.18c.06,0,.11.05.12.11a1.82,1.82,0,0,1,.41,1.47,5,5,0,0,1-.47.64c-.89.81-1.68,1.71-2.57,2.52a1.79,1.79,0,0,1-1.88-.06c-.31-.22-.51-.54-.82-.76a3.24,3.24,0,0,0-.58-.59,32.74,32.74,0,0,0-8-5.5c0-.14-.17-.07-.17-.18s-.28-.34-.36-.23.05.07.06.12a.28.28,0,0,0-.23-.06c-.05,0-.12,0-.12-.06A14.74,14.74,0,0,0,128.47,21a22.66,22.66,0,0,0-4.92-1.41c0,.28.81.25,1,.47-.67-.1-1.51-.29-2-.35a35.47,35.47,0,0,0-5.33-.47c-.35,0-.76.21-1-.17a7.39,7.39,0,0,1,2.64-.18c3.26.15,6.13.91,8.66,1.23,0-1.72.08-3.59-.06-5.21a33,33,0,0,0-12.29-1.46c-.09,0,0-.06,0-.12h.11c.36,0,.86.07,1.12-.06h2a39.49,39.49,0,0,1,12.82,2.23c.55.23,1.14.42,1.7.64.07-.15-.48-.18-.58-.35" transform="translate(-48.29 -12.88)"/><path class="cls-5" d="M131.05,36.14c-.07-.18,0-.29-.12-.47,0,.18-.07.46.12.47m2.69-5.68c.07,0,0,.06,0,.12.23.06.46.43.64.35-.2-.13-.48-.5-.64-.47m-1.64-1.29a22.27,22.27,0,0,1,4.39,3.46c.58.52,1.23.9,1.41,1.7v.76a3.89,3.89,0,0,1-.64.7c-.73.68-1.43,1.38-2.11,2.11a1.79,1.79,0,0,1-2.11.41.76.76,0,0,1-.29-.3,2.12,2.12,0,0,0-.65-.76A20.16,20.16,0,0,0,124,32c-.08-.15-.37-.1-.47-.23,1,0,2.41.65,3.46.88a5.76,5.76,0,0,1,.41-2.87,4.18,4.18,0,0,1,.23-1.76,10,10,0,0,0-3.87-1.7,31.22,31.22,0,0,0-8.07-.82c.21,0,.58.08.7-.06h2.81c.19.14.64,0,.93.06a27.06,27.06,0,0,1,8.61,2.11c0,.09.36.27.59.29a27.47,27.47,0,0,1,3.51,1.93c.19.23.5.33.71.53,0-.21-.47-.39-.65-.58s-.5-.36-.76-.53Z" transform="translate(-48.29 -12.88)"/><path class="cls-3" d="M112.19,26.54c.17.66-.06,1.73.12,2.4a20.45,20.45,0,0,0,0-2.58c-.12,0-.18.05-.17.18m-4.28.11a23.91,23.91,0,0,0-6.85,4.16,27.93,27.93,0,0,1,7.73-4c0,.13-.27.08-.29.23,1.12,0,2.9-.73,4.1-.64a12.61,12.61,0,0,1-.18,2.69c.1.21-.2,0-.17.18-.14.43.15,1.72.06,1.93a7,7,0,0,1-1.29.64,37.41,37.41,0,0,0-4.8,2.53,22.22,22.22,0,0,0-3.93,3.39c.19,0,.41-.41.65-.53-.61.8-1.8,2.07-2.87,1.06A14.65,14.65,0,0,1,98.19,36c-.25-.18,0,.17-.17,0,0,0-.24-.15-.12-.29-.1,0-.11.05-.12.12a1.75,1.75,0,0,1-.64-.88c0-.11,0,.06-.12.06a2.05,2.05,0,0,1,.23-1.29,27.17,27.17,0,0,1,10.66-7.09" transform="translate(-48.29 -12.88)"/><path class="cls-4" d="M108.79,26.77a25.63,25.63,0,0,1,7.26-1.35h.3c-.12.14-.49,0-.7.06a31.22,31.22,0,0,1,8.07.82,10.11,10.11,0,0,1,3.87,1.7,4.18,4.18,0,0,0-.23,1.76,5.76,5.76,0,0,0-.41,2.87c-1-.23-2.45-.92-3.46-.88h-.06c0-.16-.3-.17-.58-.18h-.06c-2.12-.65-5.91-1.22-8.08-.23,1.56.17,4.51-.1,6.32.35a5.84,5.84,0,0,1,1.35.29c-.13.15.05.33.18.18.15.12-.2.13-.3.06.15.23.26.28.06.41a22.41,22.41,0,0,0-9.37-.06c0-.1-.14-.34-.06-.65a20.53,20.53,0,0,0-4.8,1.64c0,.11.07.13.06.24-.11-.13-.18,0-.3-.06a21.42,21.42,0,0,0-4.91,3.45c-.24.12-.46.56-.65.53a22.69,22.69,0,0,1,3.93-3.4,37.26,37.26,0,0,1,4.8-2.51,8.21,8.21,0,0,0,1.29-.65c.09-.21-.2-1.5-.06-1.93,0-.14.27,0,.17-.18a12.61,12.61,0,0,0,.18-2.69c-1.2-.09-3,.67-4.1.64,0-.15.25-.1.29-.23" transform="translate(-48.29 -12.88)"/><path class="cls-4" d="M129.29,27.88c-.23,0-.61-.2-.59-.29.25,0,.35.2.59.23Z" transform="translate(-48.29 -12.88)"/><path class="cls-3" d="M132.86,29.76c.18.19.68.37.65.58-.21-.2-.52-.3-.71-.52,0,0,.07,0,.06-.06" transform="translate(-48.29 -12.88)"/><path class="cls-4" d="M134.38,30.93c-.18.08-.41-.29-.64-.35,0-.06.07-.11,0-.12.16,0,.44.34.64.47" transform="translate(-48.29 -12.88)"/><path class="cls-3" d="M135.15,37.9c.68-.73,1.38-1.43,2.11-2.11-.68.73-1.39,1.43-2.11,2.11" transform="translate(-48.29 -12.88)"/><path class="cls-4" d="M133,38.31a1.79,1.79,0,0,0,2.11-.41,1.14,1.14,0,0,1-.94.64h-.64c-.27,0-.36-.12-.53-.17Z" transform="translate(-48.29 -12.88)"/><path class="cls-5" d="M123.43,31.75a1.72,1.72,0,0,1-.58-.18c.28,0,.59,0,.58.18" transform="translate(-48.29 -12.88)"/><path class="cls-5" d="M122.79,31.57a6.69,6.69,0,0,0-2.7-.29c.16.29.68.22.94.41-1.81-.45-4.76-.18-6.32-.35,2.17-1,6-.42,8.08.23" transform="translate(-48.29 -12.88)"/><path class="cls-3" d="M122.32,32.63c.21-.13.09-.17-.06-.41.1.07.45.06.3-.06-.13.15-.31,0-.18-.18a8,8,0,0,1,1.17.3,19.1,19.1,0,0,1,4.28,1.87,1.91,1.91,0,0,1-.06.53,24.07,24.07,0,0,0-5.45-2Z" transform="translate(-48.29 -12.88)"/><path class="cls-7" d="M97,35c.08,0,.07-.17.12-.06a1.75,1.75,0,0,0,.64.88c0-.07,0-.14.12-.12-.12.14.07.26.12.29.22.17-.08-.18.17,0a14.65,14.65,0,0,0,1.88,2.23c1.07,1,2.26-.26,2.87-1.06a21.27,21.27,0,0,1,4.92-3.45c.35.24.15.22.29.41a31.06,31.06,0,0,1,4.8-1.58,22.41,22.41,0,0,1,9.37.06v0a24.57,24.57,0,0,1,5.45,2,1.91,1.91,0,0,0,.06-.53,20.26,20.26,0,0,1,3.86,2.75c.32.41.74.71,1.06,1.11a.76.76,0,0,0,.29.3v.06c.17.05.26.2.53.17a.72.72,0,0,0,.64,0,1.14,1.14,0,0,0,.94-.64c.72-.68,1.43-1.38,2.11-2.11a3.89,3.89,0,0,0,.64-.7c0,.06,0,.1.06.11a1.67,1.67,0,0,1-.7,1.47c-.73.67-1.43,1.38-2.11,2.11v0c-.22.18-.42.37-.65.53a2,2,0,0,1-1.17,0,4.62,4.62,0,0,1-.64-.53,21,21,0,0,0-30.4,0,2.36,2.36,0,0,1-1.11.7h-.35c-.17-.11-.44-.11-.59-.24a2.05,2.05,0,0,1-.47-.46c-.66-.71-1.34-1.4-2-2.06,0,0,0,0-.11,0-.18-.22-.37-.42-.53-.65A4.89,4.89,0,0,1,97,35.2c.07,0,.07-.09.06-.17" transform="translate(-48.29 -12.88)"/><path class="cls-4" d="M132.1,29.17a.76.76,0,0,1-.47-.29.94.94,0,0,1,.47.29" transform="translate(-48.29 -12.88)"/><path class="cls-3" d="M107.85,33.74c.12,0,.19-.07.3.06,0-.11-.07-.13-.06-.24a20.53,20.53,0,0,1,4.8-1.64c-.08.31.11.56.06.65a31.06,31.06,0,0,0-4.8,1.58c-.14-.19.06-.17-.3-.41" transform="translate(-48.29 -12.88)"/><path class="cls-5" d="M127,40.24c.18.15.41.25.53.47s-.17,0-.12-.12c-.11.11-.15,0-.29,0,.1-.2,0-.19-.12-.35" transform="translate(-48.29 -12.88)"/><path class="cls-3" d="M122.5,37.84c.1,0,.24,0,.29.12.28.17.62.28.88.46-.26,0-.71-.22-1-.35.28,0-.12-.12-.17-.17Z" transform="translate(-48.29 -12.88)"/><path class="cls-3" d="M113.83,37.6a1.8,1.8,0,0,1,.7-.17,1.8,1.8,0,0,1-.7.17" transform="translate(-48.29 -12.88)"/><path class="cls-3" d="M111.78,38.31a5.11,5.11,0,0,1,1.17-.47,5.83,5.83,0,0,1-1.17.47" transform="translate(-48.29 -12.88)"/><path class="cls-7" d="M112.6,37.78a13.44,13.44,0,0,1,4-.76h1.7a11.78,11.78,0,0,1,3.57.64,1.08,1.08,0,0,0,.53.18h.06v.06c0,.05.45.16.17.17a12.39,12.39,0,0,0-4.15-.88,7.82,7.82,0,0,0-2,0,8.72,8.72,0,0,0-1.94.24,1.8,1.8,0,0,0-.7.17,3.34,3.34,0,0,0-.88.24,5.11,5.11,0,0,0-1.17.47h-.06c-.21,0-.26.16-.47.17.34-.31,1.13-.47,1.35-.7" transform="translate(-48.29 -12.88)"/><path class="cls-3" d="M112.6,37.78c-.22.23-1,.39-1.35.7.21,0,.26-.17.47-.17a1.29,1.29,0,0,1-.64.35l.35.17c-.06.17-.22,0-.24.12s.33,0,.47.06v.47c-.08.06-.21.06-.29.12.08.26,0,.41,0,.76-.26.18.15-.28-.06-.41a6.6,6.6,0,0,0-.12,1.46,1.93,1.93,0,0,1-.35.29c-.16,1.27.63,2.34.18,3.34.38.13.21.21.47.41.15,0,.11-.35.06-.23.17-.29,0,.29,0,.35A7.56,7.56,0,0,1,110,46.92c.64-.15,1-.72,1.64-1.29.22-.18,1-1,1.23-.71s-.22.27-.23.3.18,0,0,.17.23,0,.23-.06,0,0,.06,0c-.77.22-1.68,1.55-2.46,2.11a1.75,1.75,0,0,1-2.52-.82.33.33,0,0,1,.24,0c-.08-.09-.24-.18-.12-.3,0,0-.11,0-.12.12s0-.1.06-.12c-.75-1-1.71-1.72-2.46-2.69V42.7a2.89,2.89,0,0,1,.53-.82,16,16,0,0,1,6.5-4.1" transform="translate(-48.29 -12.88)"/><path class="cls-4" d="M122.67,38.07c.29.13.74.4,1,.35-.26-.18-.6-.29-.88-.46A13.69,13.69,0,0,1,127,40.24c.07.16.22.15.12.35.14,0,.18.11.29,0,0,.1.11.25.12.12s0,0,0,.06c-.21.19-.4-.09-.58-.35-.22,0,.24.32-.06.29-.12-.39-.13-.5-.41-.35,0-.08.07-.08.06-.18s-.16.07-.18.12c0-.35-.9-.26-1-.47-1,1.25-.09,2.87-.06,4.21a5.39,5.39,0,0,0,.06,1.53c.12-.23.18.33.29.47-.26.06-.15-.24-.23-.35-.11.14,0,.48-.18.58,0,.09.1.1.12.18,1-.8,2-1.55,2.87-2.41.11.14.42-.11.58.07-.17-.34.49-.17.47-.71.06,0,.07.05.12.06v.06c-.86.93-1.91,2.26-2.93,3.16a1.75,1.75,0,0,1-.94.41c-1.22-.37-1.83-1.47-2.81-2.17a8.59,8.59,0,0,0-6.61-1.58c2.2.13,4.35.29,5.73,1.23a1.57,1.57,0,0,1,.59.35c-.08.08-.09,0-.18,0,.06.11.11.21.3.18-.36.12-.11.16,0,.35-.12,0-.12.18-.24.06-2.14-1.64-7-1.78-9.31-.18,0,0,0,0-.06,0s-.53.36-.23.06-.06-.08,0-.17.38-.13.23-.3-1,.53-1.23.71c-.69.57-1,1.14-1.64,1.29a7.56,7.56,0,0,0,1.53-1.35c0-.06.17-.64,0-.35,0-.12.09.24-.06.23-.26-.2-.09-.28-.47-.41.45-1-.34-2.07-.18-3.34a1.93,1.93,0,0,0,.35-.29,6.6,6.6,0,0,1,.12-1.46c.21.13-.2.59.06.41,0-.36.08-.5,0-.77.08-.05.21-.05.29-.11V39c-.14,0-.42.07-.47-.06s.18,0,.24-.12l-.35-.17a1.29,1.29,0,0,0,.64-.35h.06a5.83,5.83,0,0,0,1.17-.47,3.34,3.34,0,0,1,.88-.24,1.8,1.8,0,0,0,.7-.17,8.7,8.7,0,0,1,1.93-.24h.35c0,.17-.36,0-.35.12.92-.06,1.94.09,2.7,0-.25-.08-.66,0-.88-.12h.24a12.39,12.39,0,0,1,4.15.88" transform="translate(-48.29 -12.88)"/><path class="cls-3" d="M129.35,43.52v.12c-.4.72-1.37,1.15-1.58,1.87.07-.3-.28,0-.18.18,0-.19.14-.09.29-.24.06.08-.12.34,0,.41-.93.67-1.3,2.08-2.76,1.88-1-.14-2-2-2.81-2.23.12.12.12,0,.24-.06-.11-.19-.36-.23,0-.35-.19,0-.24-.07-.3-.18.09,0,.1.08.18,0a6.69,6.69,0,0,1,1.4,1.12c.45.47.71,1.12,1.7,1.05a1.75,1.75,0,0,0,.94-.41c1-.9,2.07-2.23,2.93-3.16" transform="translate(-48.29 -12.88)"/><path class="cls-5" d="M121.79,44.57c-1.38-.93-3.53-1.1-5.73-1.23a8.59,8.59,0,0,1,6.61,1.58c1,.7,1.59,1.8,2.81,2.17-1,.08-1.25-.58-1.69-1.05a6.81,6.81,0,0,0-2.23-1.76c0,.22.22.13.23.29" transform="translate(-48.29 -12.88)"/><path class="cls-5" d="M129.35,43.46s-.06-.06-.12-.06c0,.54-.64.37-.47.71-.16-.18-.47.07-.58-.07-.9.86-1.91,1.61-2.87,2.41,0-.08-.11-.09-.12-.18.16-.1.07-.44.18-.58.08.11,0,.41.23.35-.11-.14-.17-.7-.29-.47a5.39,5.39,0,0,1-.06-1.53c0-1.34-1-3,.06-4.21.15.21,1.06.12,1,.47,0,0,.16-.26.18-.12s-.06.1-.06.18c.28-.15.29,0,.41.35.3,0-.16-.24.06-.29.18.26.37.54.58.35.68.61,1.52,1.06,1.82,2Z" transform="translate(-48.29 -12.88)"/><path class="cls-7" d="M122.26,45.51c.84.25,1.85,2.09,2.81,2.23,1.46.2,1.83-1.21,2.76-1.88-.07-.07.11-.33,0-.41-.15.15-.29,0-.29.24-.1-.17.25-.48.18-.18.21-.72,1.18-1.15,1.58-1.87,0,0,0,0,.06,0a3.2,3.2,0,0,1-.18.94c-1.07,1.09-2.11,2.23-3.28,3.22-1.2.44-1.89-.67-2.57-1.28a8.62,8.62,0,0,0-5.16-2.23c-3.61-.26-6,1.33-7.9,3.4-.16.12-.43.12-.59.23a4.32,4.32,0,0,1-.76-.12,35,35,0,0,1-3.34-3.33,4.25,4.25,0,0,1-.12-.83s.07,0,.06-.11c.75,1,1.71,1.72,2.46,2.69-.06,0-.14.1-.06.12s.07-.09.12-.12c-.12.12,0,.21.12.3a.33.33,0,0,0-.24,0,1.75,1.75,0,0,0,2.52.82c.78-.56,1.69-1.89,2.46-2.11,2.3-1.6,7.17-1.46,9.31.18" transform="translate(-48.29 -12.88)"/><path class="cls-3" d="M113,51.66a4.61,4.61,0,0,0-1.35,2.52,4.77,4.77,0,0,0,1.17,3.8c2.33,2.5,7.63,1.57,7.62-2.86a4.86,4.86,0,0,0-.12-1.12,6.57,6.57,0,0,0-.59-1.4,4.73,4.73,0,0,0-2.69-2,6.18,6.18,0,0,0-1.7-.06A4.09,4.09,0,0,0,113,51.66m-.41-.35a7.45,7.45,0,0,1,7.79-1.17c-.1,0-.11,0-.12.11,1.31,1.62,2.61,3.4,2,6.39a6,6,0,0,1-6,4.74,7.65,7.65,0,0,1-5.56-2.4c-.1.12,0,.07,0,.23-.17-.08-.1-.24,0-.29a.25.25,0,0,0-.29,0A7.39,7.39,0,0,1,112,52a4.3,4.3,0,0,0,.64-.64" transform="translate(-48.29 -12.88)"/><path class="cls-7" d="M110.49,58.92a.25.25,0,0,1,.29,0c-.15,0-.22.21,0,.29,0-.16-.1-.11,0-.23a7.65,7.65,0,0,0,5.56,2.4,6,6,0,0,0,6-4.74c.62-3-.68-4.77-2-6.39,0-.07,0-.13.12-.11a7.29,7.29,0,0,1-3.58,13.94,7.67,7.67,0,0,1-4.15-1.76,5.14,5.14,0,0,0-.7-.7,7.5,7.5,0,0,1-1.47-2.7" transform="translate(-48.29 -12.88)"/><path class="cls-3" d="M118.87,12.89c.19,0,.54-.07.64.06-.2,0-.54.08-.64-.06" transform="translate(-48.29 -12.88)"/><path class="cls-3" d="M129.52,14.76a3.66,3.66,0,0,1,.53.18V15a.8.8,0,0,1-.53-.24" transform="translate(-48.29 -12.88)"/><path class="cls-4" d="M130.05,14.94a5.81,5.81,0,0,1,1.11.41v.06c-.38-.12-.74-.27-1.11-.41Z" transform="translate(-48.29 -12.88)"/><path class="cls-3" d="M131.16,15.35a1.16,1.16,0,0,1,.59.23.67.67,0,0,0,.47.18c.07,0,.1,0,.12.06s.65.2.58.35c-.56-.22-1.15-.41-1.7-.64.05,0,.12,0,.12-.06s-.08-.08-.18-.06Z" transform="translate(-48.29 -12.88)"/><path class="cls-5" d="M131.75,15.58a.67.67,0,0,1,.47.18.67.67,0,0,1-.47-.18" transform="translate(-48.29 -12.88)"/><path class="cls-3" d="M117.64,24.9c.31,0,.77-.08,1,.05-.31,0-.78.08-1-.05" transform="translate(-48.29 -12.88)"/><path class="cls-7" d="M118.63,25a26,26,0,0,1,11.77,3.23c.08.14.24.18.41.23.35.09.5.36.82.47a.76.76,0,0,0,.47.29v.06c.26.17.52.34.76.53,0,0,0,0-.06,0a27.47,27.47,0,0,0-3.51-1.93v-.06c-.25,0-.34-.2-.59-.23a27.06,27.06,0,0,0-8.6-2.11c-.14-.13-.53,0-.76-.06s-.57,0-.82-.05h-1.76c-.22,0-.59-.08-.7.05a25.63,25.63,0,0,0-7.27,1.35,27.93,27.93,0,0,0-7.73,4,24.13,24.13,0,0,1,6.85-4.16,24.72,24.72,0,0,1,8.38-1.7c.31,0,.78.08,1-.05h.36c.21.13.68,0,1,.05" transform="translate(-48.29 -12.88)"/><path class="cls-4" d="M119.34,25.42c.23,0,.62-.07.75.06-.29,0-.74.08-.93-.06Z" transform="translate(-48.29 -12.88)"/><path class="cls-3" d="M130.4,28.18a.56.56,0,0,1,.41.23c-.17-.05-.33-.09-.41-.23" transform="translate(-48.29 -12.88)"/><path class="cls-3" d="M116.64,37a4.85,4.85,0,0,1,1.7,0Z" transform="translate(-48.29 -12.88)"/><path class="cls-3" d="M121.91,37.66a.71.71,0,0,1,.53.18,1.08,1.08,0,0,1-.53-.18" transform="translate(-48.29 -12.88)"/><path class="cls-4" d="M115.29,13.36c.26-.14.76,0,1.11-.06-.25.14-.75,0-1.11.06" transform="translate(-48.29 -12.88)"/><path class="cls-3" d="M112.83,20.33c-1.69.24-3.24.62-4.8,1-.1-.2.1-.39-.06-.58a23.73,23.73,0,0,1,4.92-1.06c-.09.09.1.5-.06.65" transform="translate(-48.29 -12.88)"/><path class="cls-3" d="M116.29,25c.22-.13.68,0,1-.05-.21.13-.68,0-1,.05" transform="translate(-48.29 -12.88)"/><path class="cls-3" d="M88.59,25.66c0,.23.07.62-.06.76v-.76Z" transform="translate(-48.29 -12.88)"/></g><path class="cls-8" d="M67.46,114.6V78.76a3.07,3.07,0,0,0-3.35-3.35c-2.07,0-4,1.29-6.19,2.92V114.6H48.29V68.36H57.4V73c4-3.43,6.1-5.5,10.66-5.5,4.81,0,6.36,1.72,8.42,5.5,4.64-4.46,7.22-5.5,10.74-5.5,6,0,9,3.7,9,9.71V114.6H86.62V78.76a3.13,3.13,0,0,0-3.44-3.35c-2.06,0-4,1.29-6.1,2.92V114.6Z" transform="translate(-48.29 -12.88)"/><path class="cls-8" d="M123.83,68.36h9.71L121.43,118c-2.07,8.42-5.93,11.08-13.15,11.08h-4v-7.91h2.32c4.81,0,6.36-2.57,6.36-7.47a23.88,23.88,0,0,0-1-6.1L101.83,68.36h9.8l6.19,29.57H118Z" transform="translate(-48.29 -12.88)"/><path class="cls-6" d="M164,73.35V68.54c0-5.25-2.4-7.48-5.15-7.48-4.3,0-5.67,2.23-5.67,6.87V99.39c0,4.64,1.37,6.87,5.67,6.87,3.87,0,5.15-2.23,5.15-6.27V92.51h10.66v7.13c0,8.77-5.16,15.9-15.81,15.9-11.17,0-16.33-7.13-16.33-15.9v-32c0-8.77,5.16-15.9,16.33-15.9,10.65,0,15.81,7.73,15.81,17v4.56Z" transform="translate(-48.29 -12.88)"/><path class="cls-6" d="M228.16,52.64v62h-9.28V66.21h-.17l-9.63,48.47h-5.16L194.3,66.21h-.17v48.47h-9.28v-62h14l7.57,36.26h.17l7.56-36.26Z" transform="translate(-48.29 -12.88)"/><path class="cls-6" d="M259.44,73.35V68.54c0-5.25-2.41-7.48-5.16-7.48-4.29,0-5.67,2.23-5.67,6.87V99.39c0,4.64,1.38,6.87,5.67,6.87,3.87,0,5.16-2.23,5.16-6.27V92.51H270.1v7.13c0,8.77-5.16,15.9-15.82,15.9-11.17,0-16.32-7.13-16.32-15.9v-32c0-8.77,5.15-15.9,16.32-15.9,10.66,0,15.82,7.73,15.82,17v4.56Z" transform="translate(-48.29 -12.88)"/><path class="cls-8" d="M134.26,129.13c0-1.09-.33-1.7-1.24-1.7a1.41,1.41,0,0,0-1.49,1.09c-.47,2.13,4.66,3,3.77,7a4.61,4.61,0,0,1-4.8,3.68c-2.48,0-3.59-1.42-3.49-3.8l2.64-.69c-.08,1.14.1,2.16,1.39,2.16a1.51,1.51,0,0,0,1.54-1.19c.52-2.36-4.61-3.25-3.78-7a4.74,4.74,0,0,1,4.61-3.65c2.23,0,3.39,1.49,3.35,3.62Z" transform="translate(-48.29 -12.88)"/><path class="cls-8" d="M138.16,127.68l.52-2.33h1.57l.81-3.68h2.84l-.81,3.68H145l-.52,2.33h-1.9l-1.74,7.86c-.16.71.06,1.11.72,1.11h.93l-.54,2.44a5.29,5.29,0,0,1-1.45.15c-2.13,0-3.1-1-2.64-3.07l1.88-8.49Z" transform="translate(-48.29 -12.88)"/><path class="cls-8" d="M145.65,129.35a5.44,5.44,0,0,1,5.5-4.25c2.64,0,3.87,1.21,3.31,3.7l-1.93,8.74a8.59,8.59,0,0,0-.14,1.45h-2.72c.06-.38,0-.74.09-1.07a6,6,0,0,1-3.61,1.32c-1.93,0-2.6-1.32-2.21-3.07.66-3,3-4.64,7.42-6.18l.18-.81c.25-1.14-.07-1.75-1-1.75-1.3,0-1.74.76-2,1.92Zm5.25,2.72c-2.91,1.47-3.75,2.4-4,3.6-.2.88.18,1.24,1,1.24a3.31,3.31,0,0,0,2.18-1.27Z" transform="translate(-48.29 -12.88)"/><path class="cls-8" d="M163.47,125.35h2.86L159.51,140c-1.16,2.48-2.47,3.27-4.6,3.27h-1.19l.52-2.33h.68c1.42,0,2-.76,2.37-2.21a7,7,0,0,0,.09-1.8l-.4-11.58h2.89l-.11,8.72h.05Z" transform="translate(-48.29 -12.88)"/><path class="cls-8" d="M178.38,130l.08-.35c.35-1.57-.06-2.23-1.08-2.23s-1.71.66-2.06,2.23l-1.11,5c-.35,1.57.06,2.23,1.07,2.23s1.72-.66,2.07-2.23l.19-.86h2.84l-.08.35c-.66,3-2.29,5.07-5.53,5.07s-4-2.08-3.29-5.07l.89-4c.66-3,2.29-5.07,5.53-5.07s3.91,2,3.32,4.91Z" transform="translate(-48.29 -12.88)"/><path class="cls-8" d="M183.62,130.17c.66-3,2.29-5.07,5.53-5.07s3.95,2.07,3.29,5.07l-.89,4c-.66,3-2.29,5.07-5.53,5.07s-4-2.08-3.29-5.07Zm6.09-.51c.35-1.57-.06-2.23-1.07-2.23s-1.72.66-2.07,2.23l-1.11,5c-.35,1.57.06,2.23,1.08,2.23s1.71-.66,2.06-2.23Z" transform="translate(-48.29 -12.88)"/><path class="cls-8" d="M193.07,139l3-13.64h2.68l-.3,1.37c1.41-1,2.16-1.62,3.81-1.62,1.49,0,2.14,1.09,1.74,2.86l-2.44,11h-2.84l2.34-10.57c.16-.69-.18-1-.79-1a4.26,4.26,0,0,0-2,.86L195.91,139Z" transform="translate(-48.29 -12.88)"/><path class="cls-8" d="M204.33,139l3-13.64H210l-.3,1.37c1.41-1,2.15-1.62,3.8-1.62,1.5,0,2.14,1.09,1.75,2.86l-2.44,11H210l2.34-10.57c.15-.69-.19-1-.8-1a4.23,4.23,0,0,0-2,.86L207.17,139Z" transform="translate(-48.29 -12.88)"/><path class="cls-8" d="M225.65,132.7h-6l-.44,2c-.35,1.57.06,2.23,1.07,2.23s1.72-.66,2.07-2.23l.07-.31h2.84c-.69,2.89-2.32,4.87-5.49,4.87s-3.95-2.08-3.29-5.07l.89-4c.66-3,2.29-5.07,5.53-5.07s4,2.07,3.29,5.07Zm-2.32-2.33.15-.71c.35-1.57-.06-2.23-1.07-2.23s-1.72.66-2.07,2.23l-.16.71Z" transform="translate(-48.29 -12.88)"/><path class="cls-8" d="M234.66,130l.08-.35c.35-1.57-.07-2.23-1.08-2.23s-1.72.66-2.07,2.23l-1.11,5c-.34,1.57.07,2.23,1.08,2.23s1.72-.66,2.07-2.23l.19-.86h2.84l-.08.35c-.67,3-2.29,5.07-5.54,5.07s-3.95-2.08-3.28-5.07l.88-4c.67-3,2.29-5.07,5.54-5.07s3.91,2,3.32,4.91Z" transform="translate(-48.29 -12.88)"/><path class="cls-8" d="M239.49,127.68l.51-2.33h1.58l.81-3.68h2.84l-.82,3.68h1.9l-.51,2.33h-1.9l-1.74,7.86c-.16.71.05,1.11.71,1.11h.94l-.54,2.44a5.29,5.29,0,0,1-1.45.15c-2.13,0-3.1-1-2.64-3.07l1.88-8.49Z" transform="translate(-48.29 -12.88)"/><path class="cls-8" d="M255.21,132.7h-6l-.44,2c-.35,1.57.06,2.23,1.07,2.23s1.72-.66,2.07-2.23l.07-.31h2.84c-.69,2.89-2.32,4.87-5.49,4.87s-3.95-2.08-3.29-5.07l.89-4c.66-3,2.29-5.07,5.53-5.07s4,2.07,3.29,5.07Zm-2.33-2.33.16-.71c.35-1.57-.06-2.23-1.08-2.23s-1.71.66-2.06,2.23l-.16.71Z" transform="translate(-48.29 -12.88)"/><path class="cls-8" d="M262.23,139l.32-1.42h-.05c-1.21,1.19-2,1.67-3.42,1.67-1.77,0-2.59-1.32-2-3.8l1.44-6.54c.56-2.49,2-3.8,3.74-3.8,1.24,0,1.71.5,2.62,1.42l1.29-5.83H269L264.92,139Zm2.25-10.85a2.23,2.23,0,0,0-1.46-.71c-.76,0-1.46.4-1.86,2.2L260,134.7c-.4,1.8.12,2.21.88,2.21a3.69,3.69,0,0,0,1.78-.71Z" transform="translate(-48.29 -12.88)"/><path class="cls-6" d="M285.22,66.78a8.2,8.2,0,0,1-2.91-.53,7.39,7.39,0,0,1-2.46-1.51,7.19,7.19,0,0,1-1.68-2.36,7.92,7.92,0,0,1,0-6.19,7.19,7.19,0,0,1,1.68-2.36,7.76,7.76,0,0,1,2.46-1.52,8.25,8.25,0,0,1,5.82,0,7.6,7.6,0,0,1,2.45,1.52,7.08,7.08,0,0,1,1.69,2.36,7.92,7.92,0,0,1,0,6.19,7.08,7.08,0,0,1-1.69,2.36,7.25,7.25,0,0,1-2.45,1.51A8.2,8.2,0,0,1,285.22,66.78Zm5.7-7.5a6.24,6.24,0,0,0-.45-2.39A5.6,5.6,0,0,0,289.25,55a5.51,5.51,0,0,0-1.81-1.22,6,6,0,0,0-4.45,0A5.4,5.4,0,0,0,281.18,55,5.76,5.76,0,0,0,280,56.89a6.68,6.68,0,0,0,0,4.77,5.66,5.66,0,0,0,1.22,1.88A5.4,5.4,0,0,0,283,64.76a5.69,5.69,0,0,0,2.23.44,5.75,5.75,0,0,0,2.22-.44,5.54,5.54,0,0,0,3-3.1A6.19,6.19,0,0,0,290.92,59.28Zm-7,4.18h-1.65V55.07h3.17a4.4,4.4,0,0,1,2.42.56,2.13,2.13,0,0,1,.83,1.93,2.87,2.87,0,0,1-.15,1,2,2,0,0,1-.44.67,1.87,1.87,0,0,1-.65.4,2.86,2.86,0,0,1-.78.18l2,3.66h-1.83l-1.88-3.58h-1.06Zm0-4.87h1.44a2.15,2.15,0,0,0,1.28-.29,1.08,1.08,0,0,0,.36-.88.86.86,0,0,0-.41-.82,2.69,2.69,0,0,0-1.31-.23h-1.36Z" transform="translate(-48.29 -12.88)"/></g></g></svg>