<?xml version="1.0" encoding="utf-8"?>
<!-- Generator: Adobe Illustrator 23.0.3, SVG Export Plug-In . SVG Version: 6.00 Build 0)  -->
<svg version="1.1"
	 id="svg2" inkscape:version="0.48.3.1 r9886" sodipodi:docname="word.svg" xmlns:cc="http://creativecommons.org/ns#" xmlns:dc="http://purl.org/dc/elements/1.1/" xmlns:inkscape="http://www.inkscape.org/namespaces/inkscape" xmlns:rdf="http://www.w3.org/1999/02/22-rdf-syntax-ns#" xmlns:sodipodi="http://sodipodi.sourceforge.net/DTD/sodipodi-0.dtd" xmlns:svg="http://www.w3.org/2000/svg"
	 xmlns="http://www.w3.org/2000/svg" xmlns:xlink="http://www.w3.org/1999/xlink" x="0px" y="0px" viewBox="0 0 110 107.5"
	 style="enable-background:new 0 0 110 107.5;" xml:space="preserve">
<style type="text/css">
	.st0{fill:#2D2D2D;}
	.st1{fill:#FFFFFF;}
</style>
<sodipodi:namedview  bordercolor="#666666" borderopacity="1" fit-margin-bottom="0" fit-margin-left="0" fit-margin-right="0" fit-margin-top="0" gridtolerance="10" guidetolerance="10" id="namedview122" inkscape:current-layer="svg2" inkscape:cx="344.89442" inkscape:cy="53.75" inkscape:pageopacity="0" inkscape:pageshadow="2" inkscape:window-height="960" inkscape:window-maximized="1" inkscape:window-width="1280" inkscape:window-x="0" inkscape:window-y="0" inkscape:zoom="1.0905983" objecttolerance="10" pagecolor="#ffffff" showgrid="false">
	</sodipodi:namedview>
<path id="path10" inkscape:connector-curvature="0" class="st0" d="M57.6,0H65c0,3.3,0,6.7,0,10c12.5,0,25,0,37.5,0
	c2.1,0.1,4.4-0.1,6.3,1.2c1.3,1.9,1.1,4.2,1.2,6.3c-0.1,21.7,0,43.4,0,65.1c-0.1,3.6,0.3,7.3-0.4,10.9c-0.5,2.6-3.6,2.7-5.7,2.8
	c-13,0-25.9,0-38.9,0c0,3.8,0,7.5,0,11.3h-7.8c-19.1-3.5-38.1-6.7-57.2-10C0,68.3,0,39.2,0,10C19.2,6.7,38.4,3.4,57.6,0z"/>
<path id="path48" inkscape:connector-curvature="0" class="st1" d="M65,13.8c13.8,0,27.5,0,41.2,0c0,26.3,0,52.5,0,78.8
	c-13.8,0-27.5,0-41.3,0c0-2.5,0-5,0-7.5c3.3,0,6.7,0,10,0c0-2.9,0-5.8,0-8.8c-3.3,0-6.7,0-10,0c0-1.7,0-3.3,0-5c3.3,0,6.7,0,10,0
	c0-2.9,0-5.8,0-8.8c-3.3,0-6.7,0-10,0c0-1.7,0-3.3,0-5c3.3,0,6.7,0,10,0c0-2.9,0-5.8,0-8.8c-3.3,0-6.7,0-10,0c0-1.7,0-3.3,0-5
	c3.3,0,6.7,0,10,0c0-2.9,0-5.8,0-8.8c-3.3,0-6.7,0-10,0c0-1.7,0-3.3,0-5c3.3,0,6.7,0,10,0c0-2.9,0-5.8,0-8.8c-3.3,0-6.7,0-10,0
	C65,18.8,65,16.3,65,13.8z"/>
<path id="path58" inkscape:connector-curvature="0" class="st0" d="M80,21.3c5.8,0,11.7,0,17.5,0c0,2.9,0,5.8,0,8.8
	c-5.8,0-11.7,0-17.5,0C80,27.1,80,24.2,80,21.3z"/>
<path id="path72" inkscape:connector-curvature="0" class="st1" d="M37,33c2.8-0.2,5.7-0.4,8.5-0.5c-3.3,6.8-6.7,13.7-10.1,20.5
	c3.4,7,7,13.9,10.4,20.9c-3-0.2-6-0.4-9-0.6c-2.1-5.2-4.7-10.3-6.2-15.7c-1.7,5.1-4.1,9.9-6.1,14.8c-2.7,0-5.5-0.1-8.2-0.3
	c3.2-6.3,6.3-12.6,9.6-18.9c-2.8-6.4-5.9-12.8-8.8-19.1c2.7-0.2,5.5-0.3,8.2-0.5c1.9,4.9,3.9,9.7,5.4,14.7
	C32.5,43.1,34.9,38.1,37,33z"/>
<path id="path90" inkscape:connector-curvature="0" class="st0" d="M80,35c5.8,0,11.7,0,17.5,0c0,2.9,0,5.8,0,8.8
	c-5.8,0-11.7,0-17.5,0C80,40.8,80,37.9,80,35z"/>
<path id="path108" inkscape:connector-curvature="0" class="st0" d="M80,48.8c5.8,0,11.7,0,17.5,0c0,2.9,0,5.8,0,8.8
	c-5.8,0-11.7,0-17.5,0C80,54.6,80,51.7,80,48.8z"/>
<path id="path114" inkscape:connector-curvature="0" class="st0" d="M80,62.5c5.8,0,11.7,0,17.5,0c0,2.9,0,5.8,0,8.8
	c-5.8,0-11.7,0-17.5,0C80,68.3,80,65.4,80,62.5z"/>
<path id="path120" inkscape:connector-curvature="0" class="st0" d="M80,76.3c5.8,0,11.7,0,17.5,0c0,2.9,0,5.8,0,8.8
	c-5.8,0-11.7,0-17.5,0C80,82.1,80,79.2,80,76.3z"/>
</svg>
